<?xml version="1.0" ?><svg height="48" id="svg2" version="1.1" viewBox="0 0 48 48" width="48" xmlns="http://www.w3.org/2000/svg" xmlns:cc="http://creativecommons.org/ns#000000" xmlns:dc="http://purl.org/dc/elements/1.1/" xmlns:rdf="http://www.w3.org/1999/02/22-rdf-syntax-ns#000000" xmlns:svg="http://www.w3.org/2000/svg"><defs id="defs2992"><linearGradient id="linearGradient4879"><stop id="stop4881" offset="0" style="stop-color:#000000ff0000;stop-opacity:0"/><stop id="stop4883" offset="1" style="stop-color:#000000ff;stop-opacity:1"/></linearGradient></defs><path d="m 20.601515,10.9971 c -4.29932,0 -7.991665,2.754 -9.40526,6.5914 -3.939774,0.16905 -7.1313043,3.4088 -7.1952763,7.388 -0.057785,3.5947 2.4480428,6.5894 5.8333138,7.25955 -0.238345,-0.8318 -0.374455,-1.7199 -0.359765,-2.634 0.07222,-4.49195 3.4064125,-8.22385 7.7092275,-8.92985 1.870155,-3.9126 5.85192,-6.6437 10.433155,-6.6942 -1.76175,-1.8409 -4.244015,-2.9809 -7.015395,-2.9809 z m 7.118185,4.62555 c -4.29932,0 -7.991665,2.754 -9.40526,6.5914 -3.939775,0.16905 -7.13131,3.4088 -7.195275,7.388 -0.06571,4.0874 3.18553,7.40085 7.27237,7.40085 l 0.128485,0 18.090992,0 c 4.02831,-0.069 7.322995,-3.35665 7.38801,-7.40085 0.06466,-4.0224 -3.0843,-7.2849 -7.07964,-7.388 -1.289925,-3.8379 -4.899987,-6.5914 -9.199682,-6.5914 z" id="path5265" style="fill:#000000;fill-opacity:1;stroke:none"/></svg>