<?xml version="1.0" ?><svg height="48" id="svg2" version="1.1" viewBox="0 0 48 48" width="48" xmlns="http://www.w3.org/2000/svg" xmlns:cc="http://creativecommons.org/ns#000000" xmlns:dc="http://purl.org/dc/elements/1.1/" xmlns:inkscape="http://www.inkscape.org/namespaces/inkscape" xmlns:rdf="http://www.w3.org/1999/02/22-rdf-syntax-ns#000000" xmlns:sodipodi="http://sodipodi.sourceforge.net/DTD/sodipodi-0.dtd" xmlns:svg="http://www.w3.org/2000/svg"><defs id="defs2992"><linearGradient id="linearGradient4879"><stop id="stop4881" offset="0" style="stop-color:#000000ff0000;stop-opacity:0"/><stop id="stop4883" offset="1" style="stop-color:#000000ff;stop-opacity:1"/></linearGradient><linearGradient id="linearGradient4879-9"><stop id="stop4881-2" offset="0" style="stop-color:#000000ff0000;stop-opacity:0"/><stop id="stop4883-6" offset="1" style="stop-color:#000000ff;stop-opacity:1"/></linearGradient><linearGradient id="linearGradient4879-3"><stop id="stop4881-8" offset="0" style="stop-color:#000000ff0000;stop-opacity:0"/><stop id="stop4883-4" offset="1" style="stop-color:#000000ff;stop-opacity:1"/></linearGradient><linearGradient id="linearGradient4879-3-0"><stop id="stop4881-8-7" offset="0" style="stop-color:#000000ff0000;stop-opacity:0"/><stop id="stop4883-4-0" offset="1" style="stop-color:#000000ff;stop-opacity:1"/></linearGradient><linearGradient id="linearGradient4879-9-6"><stop id="stop4881-2-7" offset="0" style="stop-color:#000000ff0000;stop-opacity:0"/><stop id="stop4883-6-1" offset="1" style="stop-color:#000000ff;stop-opacity:1"/></linearGradient><linearGradient id="linearGradient4879-8"><stop id="stop4881-9" offset="0" style="stop-color:#000000ff0000;stop-opacity:0"/><stop id="stop4883-7" offset="1" style="stop-color:#000000ff;stop-opacity:1"/></linearGradient><linearGradient id="linearGradient4879-3-6"><stop id="stop4881-8-3" offset="0" style="stop-color:#000000ff0000;stop-opacity:0"/><stop id="stop4883-4-9" offset="1" style="stop-color:#000000ff;stop-opacity:1"/></linearGradient><linearGradient id="linearGradient4879-9-3"><stop id="stop4881-2-6" offset="0" style="stop-color:#000000ff0000;stop-opacity:0"/><stop id="stop4883-6-6" offset="1" style="stop-color:#000000ff;stop-opacity:1"/></linearGradient><linearGradient id="linearGradient4879-6"><stop id="stop4881-4" offset="0" style="stop-color:#000000ff0000;stop-opacity:0"/><stop id="stop4883-9" offset="1" style="stop-color:#000000ff;stop-opacity:1"/></linearGradient></defs><path d="m 6.483995,43.83814 a 1.0411935,1.0412016 0 0 0 1.311288,-0.161037 l 5.889291,-5.889336 A 1.0411935,1.0412016 0 1 0 12.212251,36.315433 L 6.32296,42.204768 a 1.0411935,1.0412016 0 0 0 0.161035,1.633372 z" id="path2998" style="font-size:medium;font-style:normal;font-variant:normal;font-weight:normal;font-stretch:normal;text-indent:0;text-align:start;text-decoration:none;line-height:normal;letter-spacing:normal;word-spacing:normal;text-transform:none;direction:ltr;block-progression:tb;writing-mode:lr-tb;text-anchor:start;baseline-shift:baseline;color:#000000;fill:#000000;fill-opacity:1;fill-rule:nonzero;stroke:none;stroke-width:2;marker:none;visibility:visible;display:inline;overflow:visible;enable-background:accumulate;font-family:Sans;-inkscape-font-specification:Sans"/><path d="m 12.483995,43.83814 a 1.0411935,1.0412016 0 0 0 1.311288,-0.161037 l 5.889291,-5.889336 a 1.0411935,1.0412016 0 1 0 -1.472323,-1.472334 l -5.889291,5.889335 a 1.0411935,1.0412016 0 0 0 0.161035,1.633372 z" id="path3772" style="font-size:medium;font-style:normal;font-variant:normal;font-weight:normal;font-stretch:normal;text-indent:0;text-align:start;text-decoration:none;line-height:normal;letter-spacing:normal;word-spacing:normal;text-transform:none;direction:ltr;block-progression:tb;writing-mode:lr-tb;text-anchor:start;baseline-shift:baseline;color:#000000;fill:#000000;fill-opacity:1;fill-rule:nonzero;stroke:none;stroke-width:2;marker:none;visibility:visible;display:inline;overflow:visible;enable-background:accumulate;font-family:Sans;-inkscape-font-specification:Sans"/><path d="m 18.483995,43.83814 a 1.0411935,1.0412016 0 0 0 1.311288,-0.161037 l 5.889291,-5.889336 a 1.0411935,1.0412016 0 1 0 -1.472323,-1.472334 l -5.889291,5.889335 a 1.0411935,1.0412016 0 0 0 0.161035,1.633372 z" id="path3774" style="font-size:medium;font-style:normal;font-variant:normal;font-weight:normal;font-stretch:normal;text-indent:0;text-align:start;text-decoration:none;line-height:normal;letter-spacing:normal;word-spacing:normal;text-transform:none;direction:ltr;block-progression:tb;writing-mode:lr-tb;text-anchor:start;baseline-shift:baseline;color:#000000;fill:#000000;fill-opacity:1;fill-rule:nonzero;stroke:none;stroke-width:2;marker:none;visibility:visible;display:inline;overflow:visible;enable-background:accumulate;font-family:Sans;-inkscape-font-specification:Sans"/><path d="m 24.483995,43.83814 a 1.0411935,1.0412016 0 0 0 1.311288,-0.161037 l 5.889291,-5.889336 a 1.0411935,1.0412016 0 1 0 -1.472323,-1.472334 l -5.889291,5.889335 a 1.0411935,1.0412016 0 0 0 0.161035,1.633372 z" id="path3776" style="font-size:medium;font-style:normal;font-variant:normal;font-weight:normal;font-stretch:normal;text-indent:0;text-align:start;text-decoration:none;line-height:normal;letter-spacing:normal;word-spacing:normal;text-transform:none;direction:ltr;block-progression:tb;writing-mode:lr-tb;text-anchor:start;baseline-shift:baseline;color:#000000;fill:#000000;fill-opacity:1;fill-rule:nonzero;stroke:none;stroke-width:2;marker:none;visibility:visible;display:inline;overflow:visible;enable-background:accumulate;font-family:Sans;-inkscape-font-specification:Sans"/><path d="m 30.483995,43.83814 a 1.0411935,1.0412016 0 0 0 1.311288,-0.161037 l 5.889291,-5.889336 a 1.0411935,1.0412016 0 1 0 -1.472323,-1.472334 l -5.889291,5.889335 a 1.0411935,1.0412016 0 0 0 0.161035,1.633372 z" id="path3780" style="font-size:medium;font-style:normal;font-variant:normal;font-weight:normal;font-stretch:normal;text-indent:0;text-align:start;text-decoration:none;line-height:normal;letter-spacing:normal;word-spacing:normal;text-transform:none;direction:ltr;block-progression:tb;writing-mode:lr-tb;text-anchor:start;baseline-shift:baseline;color:#000000;fill:#000000;fill-opacity:1;fill-rule:nonzero;stroke:none;stroke-width:2;marker:none;visibility:visible;display:inline;overflow:visible;enable-background:accumulate;font-family:Sans;-inkscape-font-specification:Sans"/><path d="M 24.195378,6 C 18.965351,6 14.473694,9.3491 12.75409,14.0156 7.9614376,14.2212 4.0790066,18.161 4.0011906,23 c -0.07993,4.9706 3.875124,9 8.8466804,9 0.05253,0 0.103975,0 0.156302,0 l 22.007286,0 c 4.90035,-0.084 8.90827,-4.0819 8.98735,-9 0.0787,-4.8915 -3.75198,-8.859 -8.612225,-8.9844 C 33.817424,9.3485 29.425865,6 24.195378,6 z" id="path5350" style="fill:#000000;fill-opacity:1;stroke:none"/></svg>