<?xml version="1.0" ?><svg height="48" id="svg2" version="1.1" viewBox="0 0 48 48" width="48" xmlns="http://www.w3.org/2000/svg" xmlns:cc="http://creativecommons.org/ns#000000" xmlns:dc="http://purl.org/dc/elements/1.1/" xmlns:rdf="http://www.w3.org/1999/02/22-rdf-syntax-ns#000000" xmlns:svg="http://www.w3.org/2000/svg"><defs id="defs2992"><linearGradient id="linearGradient4879"><stop id="stop4881" offset="0" style="stop-color:#000000ff0000;stop-opacity:0"/><stop id="stop4883" offset="1" style="stop-color:#000000ff;stop-opacity:1"/></linearGradient><linearGradient id="linearGradient4879-9"><stop id="stop4881-2" offset="0" style="stop-color:#000000ff0000;stop-opacity:0"/><stop id="stop4883-6" offset="1" style="stop-color:#000000ff;stop-opacity:1"/></linearGradient><linearGradient id="linearGradient4879-3"><stop id="stop4881-8" offset="0" style="stop-color:#000000ff0000;stop-opacity:0"/><stop id="stop4883-4" offset="1" style="stop-color:#000000ff;stop-opacity:1"/></linearGradient></defs><path d="M 24.195378,6 C 18.965351,6 14.473694,9.3491 12.75409,14.0156 7.9614376,14.2212 4.0790066,18.161 4.0011906,23 c -0.07993,4.9706 3.875124,9 8.8466804,9 0.05253,0 0.103975,0 0.156302,0 l 22.007286,0 c 4.90035,-0.084 8.90827,-4.0819 8.98735,-9 0.0787,-4.8915 -3.75198,-8.859 -8.612225,-8.9844 C 33.817424,9.3485 29.425865,6 24.195378,6 z" id="path5350" style="fill:#000000;fill-opacity:1;stroke:none"/><path d="m 11.959978,36.003615 a 0.65489401,0.65827012 0 0 0 -0.579334,0.682 l 0,1.715 -1.179359,-1.2191 a 0.65489401,0.65827012 0 0 0 -1.0138347,0.062 0.65489401,0.65827012 0 0 0 0.08276,0.8885 l 1.2000487,1.1986 -1.7173117,0 a 0.65489401,0.65827012 0 1 0 0,1.3017 l 1.7173117,0 -1.2000487,1.2192 a 0.6562705,0.6596537 0 1 0 0.9310727,0.9299 l 1.179359,-1.2191 0,1.715 a 0.65489401,0.65827012 0 1 0 1.303502,0 l 0,-1.715 1.20005,1.2191 a 0.6562705,0.6596537 0 1 0 0.931073,-0.9299 l -1.179359,-1.2192 1.675931,0 a 0.65489401,0.65827012 0 0 0 0.682787,-0.7439 0.65489401,0.65827012 0 0 0 -0.682787,-0.5578 l -1.675931,0 1.179359,-1.1986 a 0.65489401,0.65827012 0 0 0 -0.04138,-1.0125 0.65489401,0.65827012 0 0 0 -0.889692,0.062 l -1.20005,1.2192 0,-1.7151 a 0.65489401,0.65827012 0 0 0 -0.724168,-0.6819 z" id="path5368" style="fill:#000000;fill-opacity:1;stroke:#000000;stroke-width:0;stroke-linecap:round;stroke-linejoin:round;stroke-miterlimit:4;stroke-opacity:1;stroke-dasharray:none"/><path d="m 35.959978,36.003615 a 0.65489401,0.65827012 0 0 0 -0.579334,0.682 l 0,1.715 -1.179359,-1.2191 a 0.65489401,0.65827012 0 0 0 -1.013835,0.062 0.65489401,0.65827012 0 0 0 0.08276,0.8885 l 1.200049,1.1986 -1.717312,0 a 0.65489401,0.65827012 0 1 0 0,1.3017 l 1.717312,0 -1.200049,1.2192 a 0.6562705,0.6596537 0 1 0 0.931073,0.9299 l 1.179359,-1.2191 0,1.715 a 0.65489401,0.65827012 0 1 0 1.303502,0 l 0,-1.715 1.20005,1.2191 a 0.6562705,0.6596537 0 1 0 0.931073,-0.9299 l -1.179359,-1.2192 1.675931,0 a 0.65489401,0.65827012 0 0 0 0.682787,-0.7439 0.65489401,0.65827012 0 0 0 -0.682787,-0.5578 l -1.675931,0 1.179359,-1.1986 a 0.65489401,0.65827012 0 0 0 -0.04138,-1.0125 0.65489401,0.65827012 0 0 0 -0.889692,0.062 l -1.20005,1.2192 0,-1.7151 a 0.65489401,0.65827012 0 0 0 -0.724168,-0.6819 z" id="path7477" style="fill:#000000;fill-opacity:1;stroke:#000000;stroke-width:0;stroke-linecap:round;stroke-linejoin:round;stroke-miterlimit:4;stroke-opacity:1;stroke-dasharray:none"/></svg>