<?xml version="1.0" ?><svg height="48" id="svg2" version="1.1" viewBox="0 0 48 48" width="48" xmlns="http://www.w3.org/2000/svg" xmlns:cc="http://creativecommons.org/ns#000000" xmlns:dc="http://purl.org/dc/elements/1.1/" xmlns:rdf="http://www.w3.org/1999/02/22-rdf-syntax-ns#000000" xmlns:svg="http://www.w3.org/2000/svg"><defs id="defs2992"><linearGradient id="linearGradient4879"><stop id="stop4881" offset="0" style="stop-color:#000000ff0000;stop-opacity:0"/><stop id="stop4883" offset="1" style="stop-color:#000000ff;stop-opacity:1"/></linearGradient><linearGradient id="linearGradient4879-9"><stop id="stop4881-2" offset="0" style="stop-color:#000000ff0000;stop-opacity:0"/><stop id="stop4883-6" offset="1" style="stop-color:#000000ff;stop-opacity:1"/></linearGradient><linearGradient id="linearGradient4879-3"><stop id="stop4881-8" offset="0" style="stop-color:#000000ff0000;stop-opacity:0"/><stop id="stop4883-4" offset="1" style="stop-color:#000000ff;stop-opacity:1"/></linearGradient></defs><g id="g6859" transform="translate(10.281253,-1111.3685)"><path d="m 8.71875,1115.3747 c -8.28427125,0 -15,6.7157 -15,15 0,0.2642 0.01776,0.5205 0.03125,0.7813 1.6991074,-2.4164 4.3245303,-4.1297 7.34375,-4.625 2.29562,-4.8027 7.206585,-8.1563 12.84375,-8.1563 1.714136,0 3.336594,0.3412 4.84375,0.9063 -2.664698,-2.4254 -6.175457,-3.9063 -10.0625,-3.9063 z" id="path6825" style="fill:#000000;fill-opacity:1;stroke:none"/><path d="m 13.90625,116 c -5.230027,0 -9.717895,3.36315 -11.4375,8.03125 -4.792653,0.2056 -8.672184,4.1594 -8.75,9 -0.07993,4.9723 3.872193,9 8.84375,9 l 0.15625,0 3.28125,0 0,-0.0312 2,-14 14,0 -2,4 6,0 -6,10 0,0.0312 4.71875,0 c 4.900353,-0.084 8.920914,-4.0803 9,-9 0.07866,-4.8931 -3.764756,-8.8746 -8.625,-9 C 23.52459,119.36255 19.136737,116 13.90625,116 z" id="path6831" style="fill:#000000;fill-opacity:1;stroke:none" transform="translate(0,1004.3622)"/><path d="m 10.464656,1133.3622 -2.07814,10.7185 5.05316,-0.1299 -3.04065,11.4114 11.98757,-17.0414 -5.53441,0 1.96876,-4.9586 -8.35629,0 z" id="path6833" style="fill:#000000;fill-opacity:1;stroke:none"/></g></svg>